<svg width="33" height="33" viewBox="0 0 33 33" fill="none" xmlns="http://www.w3.org/2000/svg">
<path fill-rule="evenodd" clip-rule="evenodd" d="M16.4989 4.125C9.66543 4.125 4.125 9.66543 4.125 16.5004C4.125 21.9679 7.67048 26.6058 12.588 28.2429C13.2071 28.3561 13.4327 27.974 13.4327 27.6458C13.4327 27.3526 13.4221 26.5739 13.416 25.5415C9.97387 26.289 9.2476 23.8823 9.2476 23.8823C8.68467 22.4533 7.87332 22.0727 7.87332 22.0727C6.74974 21.3047 7.95841 21.3199 7.95841 21.3199C9.2005 21.408 9.85384 22.5954 9.85384 22.5954C10.9577 24.4863 12.7505 23.94 13.4555 23.624C13.568 22.8241 13.887 22.2786 14.2411 21.9694C11.4933 21.6572 8.60414 20.5951 8.60414 15.8531C8.60414 14.5024 9.08655 13.3978 9.87815 12.5325C9.75052 12.2195 9.32585 10.9615 9.99894 9.25748C9.99894 9.25748 11.0382 8.92473 13.4024 10.5262C14.3892 10.2519 15.4482 10.1144 16.5004 10.1099C17.551 10.1144 18.61 10.2519 19.5984 10.5262C21.961 8.92473 22.998 9.25748 22.998 9.25748C23.6734 10.9615 23.2487 12.2195 23.1211 12.5325C23.9142 13.3978 24.3936 14.5024 24.3936 15.8531C24.3936 20.6073 21.4999 21.6534 18.743 21.9595C19.1874 22.3416 19.5832 23.0968 19.5832 24.2515C19.5832 25.9054 19.568 27.2401 19.568 27.6458C19.568 27.977 19.7906 28.3622 20.4189 28.2414C25.3326 26.6012 28.875 21.9664 28.875 16.5004C28.875 9.66543 23.3338 4.125 16.4989 4.125Z" fill="white"/>
</svg>
