<svg width="57" height="37" viewBox="0 0 57 37" fill="none" xmlns="http://www.w3.org/2000/svg">
<path d="M56.0656 0L37.9001 30.6979L36.9303 32.3359L35.7904 34.2671L35.6784 34.2806L30.1601 25.8864L31.1459 24.2108L38.7074 11.4177L56.0656 0Z" fill="url(#paint0_linear_86_99)"/>
<g style="mix-blend-mode:multiply" opacity="0.16">
<g style="mix-blend-mode:multiply" opacity="0.16">
<path d="M37.9001 30.6979L35.7904 34.2666L35.6784 34.2801L30.1601 25.8864L31.1454 24.2108C32.861 25.8463 35.7494 28.6197 37.9001 30.6979Z" fill="url(#paint1_linear_86_99)"/>
</g>
</g>
<path d="M26.0971 19.7108L35.6782 34.278L25.5905 35.5965L20.894 28.4556L26.0971 19.7108Z" fill="url(#paint2_linear_86_99)"/>
<g style="mix-blend-mode:screen" opacity="0.3">
<g style="mix-blend-mode:screen" opacity="0.3">
<path d="M56.0652 0L37.8997 30.6979L36.9299 32.336C36.5197 32.9862 36.0986 33.6364 35.6795 34.2801C36.4707 32.8196 37.28 31.3671 38.0913 29.9152C38.8935 28.4607 39.7093 27.0134 40.5385 25.5733C42.1941 22.6918 43.8221 19.7889 45.5072 16.9205C47.1742 14.0455 48.8732 11.1896 50.5614 8.32719C51.9508 6.01044 53.3418 3.69302 54.7347 1.37494C53.8039 1.98014 52.8746 2.57533 51.9313 3.16502L47.5433 5.94342C46.0828 6.87707 44.6157 7.79552 43.1419 8.69881C41.6694 9.61361 40.197 10.5284 38.709 11.4197L56.0652 0Z" fill="url(#paint3_linear_86_99)"/>
</g>
</g>
<g style="mix-blend-mode:screen" opacity="0.3">
<g style="mix-blend-mode:screen" opacity="0.3">
<path d="M26.097 19.7108L34.9044 33.1022C34.9784 33.2347 35.0489 33.3627 35.1185 33.4983C34.6908 32.9606 34.2822 32.4105 33.8655 31.8588C33.4569 31.3086 33.0353 30.7584 32.6406 30.2007C32.2335 29.6431 31.8344 29.0868 31.4363 28.5226C31.0461 27.9605 30.647 27.4043 30.2584 26.8341C29.4801 25.7004 28.7132 24.5607 27.9576 23.415C27.3254 22.4747 26.7142 21.5144 26.101 20.5641C25.3358 21.7978 24.557 23.0259 23.7648 24.2483C23.2986 24.958 22.84 25.6692 22.3518 26.366C21.8717 27.0662 21.3975 27.7724 20.8954 28.4581L26.097 19.7108Z" fill="url(#paint4_linear_86_99)"/>
</g>
</g>
<g style="mix-blend-mode:screen" opacity="0.15">
<g style="mix-blend-mode:screen" opacity="0.15">
<path d="M39.6497 12.0624L51.8308 4.3024L37.9957 27.9175L39.6497 12.0624Z" fill="url(#paint5_linear_86_99)"/>
</g>
</g>
<g style="mix-blend-mode:screen" opacity="0.15">
<g style="mix-blend-mode:screen" opacity="0.15">
<path d="M21.8347 28.4782L26.151 22.2832L33.6475 33.0427L21.8347 28.4782Z" fill="url(#paint6_linear_86_99)"/>
</g>
</g>
<path d="M0 37L18.1654 6.30405L19.1352 4.66603L20.275 2.73491L20.3871 2.72141L25.9064 11.1131L24.9205 12.7881L17.3556 25.5798L0 37Z" fill="url(#paint7_linear_86_99)"/>
<g style="mix-blend-mode:multiply" opacity="0.16">
<g style="mix-blend-mode:multiply" opacity="0.16">
<path d="M18.1636 6.30203L20.2733 2.73288L20.3853 2.71938L25.9046 11.1111L24.9188 12.7866C23.2042 11.1486 20.3143 8.3777 18.1636 6.30203Z" fill="url(#paint8_linear_86_99)"/>
</g>
</g>
<path d="M29.9661 17.2867L20.385 2.71948L30.4722 1.40105L35.1688 8.54184L29.9661 17.2867Z" fill="url(#paint9_linear_86_99)"/>
<g style="mix-blend-mode:multiply" opacity="0.16">
<g style="mix-blend-mode:multiply" opacity="0.16">
<path d="M0 37L18.1654 6.30461L19.1352 4.6666C19.5453 4.01639 19.9659 3.36618 20.3856 2.72197C19.5938 4.18244 18.7851 5.63489 17.9738 7.08736C17.1715 8.54153 16.3558 9.98865 15.5265 11.4288C13.871 14.3102 12.243 17.2131 10.5574 20.0816C8.89087 22.9565 7.19182 25.8124 5.50327 28.6748C4.11383 30.9916 2.72288 33.309 1.33043 35.6271C2.26123 35.0219 3.19052 34.4267 4.13383 33.8375L8.52175 31.0586C9.98187 30.125 11.449 29.2065 12.9232 28.3032C14.3956 27.3884 15.8681 26.4736 17.3561 25.5823L0 37Z" fill="url(#paint10_linear_86_99)"/>
</g>
</g>
<g style="mix-blend-mode:multiply" opacity="0.3">
<g style="mix-blend-mode:multiply" opacity="0.3">
<path d="M29.9662 17.2865L21.1569 3.89521C21.0833 3.76267 21.0123 3.63463 20.9433 3.49908C21.3709 4.03676 21.7796 4.58695 22.1937 5.13862C22.6023 5.6888 23.0235 6.23897 23.4186 6.79665C23.8257 7.35433 24.2248 7.91051 24.6229 8.4742C25.0126 9.03688 25.4122 9.59306 25.8004 10.1632C26.5793 11.297 27.3462 12.4366 28.1011 13.5823C28.7333 14.5226 29.3445 15.483 29.9577 16.4333C30.723 15.1995 31.5015 13.9715 32.2934 12.7491C32.7601 12.0393 33.2188 11.3281 33.7064 10.6314C34.1941 9.93467 34.6612 9.22494 35.1629 8.53922L29.9662 17.2865Z" fill="url(#paint11_linear_86_99)"/>
</g>
</g>
<g style="mix-blend-mode:screen" opacity="0.3">
<g style="mix-blend-mode:screen" opacity="0.3">
<path d="M16.4133 24.935L4.23283 32.695L18.0673 9.07991C18.0673 9.07991 18.0608 9.37646 16.4133 24.935Z" fill="url(#paint12_linear_86_99)"/>
</g>
</g>
<g style="mix-blend-mode:screen" opacity="0.2">
<g style="mix-blend-mode:screen" opacity="0.2">
<path d="M34.2278 8.51918L29.9094 14.7142L22.4129 3.9547L34.2278 8.51918Z" fill="url(#paint13_linear_86_99)"/>
</g>
</g>
<defs>
<linearGradient id="paint0_linear_86_99" x1="136.606" y1="327.379" x2="136.606" y2="361.351" gradientUnits="userSpaceOnUse">
<stop stop-color="#FEFEFE"/>
<stop offset="1" stop-color="#131D32"/>
</linearGradient>
<linearGradient id="paint1_linear_86_99" x1="61.9637" y1="120.372" x2="61.9637" y2="130.351" gradientUnits="userSpaceOnUse">
<stop stop-color="#FEFEFE"/>
<stop offset="1" stop-color="#131D32"/>
</linearGradient>
<linearGradient id="paint2_linear_86_99" x1="81.6424" y1="171.419" x2="81.6424" y2="187.161" gradientUnits="userSpaceOnUse">
<stop stop-color="#FEFEFE"/>
<stop offset="1" stop-color="#131D32"/>
</linearGradient>
<linearGradient id="paint3_linear_86_99" x1="119.444" y1="327.374" x2="119.444" y2="361.346" gradientUnits="userSpaceOnUse">
<stop stop-color="#FEFEFE"/>
<stop offset="1" stop-color="#131D32"/>
</linearGradient>
<linearGradient id="paint4_linear_86_99" x1="79.3379" y1="151.381" x2="79.3379" y2="165.044" gradientUnits="userSpaceOnUse">
<stop stop-color="#FEFEFE"/>
<stop offset="1" stop-color="#131D32"/>
</linearGradient>
<linearGradient id="paint5_linear_86_99" x1="94.8441" y1="229.826" x2="94.8441" y2="253.229" gradientUnits="userSpaceOnUse">
<stop stop-color="#FEFEFE"/>
<stop offset="1" stop-color="#131D32"/>
</linearGradient>
<linearGradient id="paint6_linear_86_99" x1="70.3734" y1="125.036" x2="70.3734" y2="135.699" gradientUnits="userSpaceOnUse">
<stop stop-color="#FEFEFE"/>
<stop offset="1" stop-color="#131D32"/>
</linearGradient>
<linearGradient id="paint7_linear_86_99" x1="106.449" y1="330.081" x2="106.449" y2="364.051" gradientUnits="userSpaceOnUse">
<stop stop-color="#FEFEFE"/>
<stop offset="1" stop-color="#131D32"/>
</linearGradient>
<linearGradient id="paint8_linear_86_99" x1="49.9713" y1="98.8615" x2="49.9713" y2="108.838" gradientUnits="userSpaceOnUse">
<stop stop-color="#FEFEFE"/>
<stop offset="1" stop-color="#131D32"/>
</linearGradient>
<linearGradient id="paint9_linear_86_99" x1="81.1316" y1="153.109" x2="81.1316" y2="168.851" gradientUnits="userSpaceOnUse">
<stop stop-color="#FEFEFE"/>
<stop offset="1" stop-color="#131D32"/>
</linearGradient>
<linearGradient id="paint10_linear_86_99" x1="83.7642" y1="330.077" x2="83.7642" y2="364.046" gradientUnits="userSpaceOnUse">
<stop stop-color="#FEFEFE"/>
<stop offset="1" stop-color="#131D32"/>
</linearGradient>
<linearGradient id="paint11_linear_86_99" x1="79.3715" y1="135.169" x2="79.3715" y2="148.832" gradientUnits="userSpaceOnUse">
<stop stop-color="#FEFEFE"/>
<stop offset="1" stop-color="#131D32"/>
</linearGradient>
<linearGradient id="paint12_linear_86_99" x1="61.0785" y1="234.604" x2="61.0785" y2="258.006" gradientUnits="userSpaceOnUse">
<stop stop-color="#FEFEFE"/>
<stop offset="1" stop-color="#131D32"/>
</linearGradient>
<linearGradient id="paint13_linear_86_99" x1="70.9599" y1="106.708" x2="70.9599" y2="117.37" gradientUnits="userSpaceOnUse">
<stop stop-color="#FEFEFE"/>
<stop offset="1" stop-color="#131D32"/>
</linearGradient>
</defs>
</svg>
